<svg xmlns="http://www.w3.org/2000/svg" xmlns:xlink="http://www.w3.org/1999/xlink" version="1.0" x="0px" y="0px" width="100px" height="100px" viewBox="0 0 100 100" overflow="" enable-background="new 0 0 100 100" xml:space="preserve">
    <path d="M84.411,46.034c-3.601,0-6.903,1.292-9.464,3.438c-0.592-13.085-11.362-23.518-24.59-23.518 c-10.121,0-18.807,6.108-22.597,14.831c-2.561-1.347-5.476-2.118-8.568-2.118c-10.187,0-18.451,8.261-18.451,18.453 s8.264,18.449,18.451,18.449h65.22c8.16,0,14.77-6.609,14.77-14.765C99.181,52.646,92.571,46.034,84.411,46.034z M7.722,57.215 c0,1.136-0.925,2.058-2.061,2.058c-1.138,0-2.059-0.922-2.059-2.058c0-8.611,6.981-15.59,15.588-15.59 c0.702,0,1.384,0.062,2.061,0.152C13.616,42.785,7.722,49.304,7.722,57.215z M35.566,50.475c0,1.464-1.189,2.652-2.653,2.652 c-1.464,0-2.653-1.188-2.653-2.652c0-11.101,8.998-20.098,20.097-20.098c0.901,0,1.783,0.079,2.653,0.195 C43.168,31.872,35.566,40.275,35.566,50.475z M75.436,60.851c0,0.89-0.72,1.608-1.608,1.608c-0.892,0-1.612-0.719-1.612-1.608 c0-6.735,5.461-12.196,12.196-12.196c0.55,0,1.085,0.047,1.612,0.118C80.05,49.562,75.436,54.664,75.436,60.851z"/>
</svg>